<svg xmlns="http://www.w3.org/2000/svg" viewBox="0 0 512 512" width="512" height="512">
  <!-- House roof -->
  <path d="M256,60 L480,260 L420,260 L420,440 L300,440 L300,320 Q300,280 256,280 Q212,280 212,320 L212,440 L92,440 L92,260 L32,260 Z" fill="#1a3c5e"/>
  <!-- Door -->
  <rect x="212" y="320" width="88" height="120" rx="44" fill="#e07a5f"/>
  <!-- Window left -->
  <rect x="120" y="280" width="64" height="64" rx="8" fill="#f2f7fb"/>
  <line x1="152" y1="280" x2="152" y2="344" stroke="#1a3c5e" stroke-width="4"/>
  <line x1="120" y1="312" x2="184" y2="312" stroke="#1a3c5e" stroke-width="4"/>
  <!-- Window right -->
  <rect x="328" y="280" width="64" height="64" rx="8" fill="#f2f7fb"/>
  <line x1="360" y1="280" x2="360" y2="344" stroke="#1a3c5e" stroke-width="4"/>
  <line x1="328" y1="312" x2="392" y2="312" stroke="#1a3c5e" stroke-width="4"/>
</svg>
