<svg xmlns="http://www.w3.org/2000/svg" viewBox="0 0 64 64">
  <circle cx="32" cy="32" r="32" fill="#6b5410"/>
  <path d="M18 26h22v14a11 11 0 0 1-11 11 11 11 0 0 1-11-11V26Z" fill="#F7F5F0"/>
  <path d="M40 29h4a5 5 0 0 1 0 10h-4v-4h4a1 1 0 0 0 0-2h-4Z" fill="#F7F5F0"/>
  <path d="M22 22c0-2 2-2 2-4s-2-2-2-4" stroke="#F7F5F0" stroke-width="2" fill="none" stroke-linecap="round"/>
  <path d="M29 22c0-2 2-2 2-4s-2-2-2-4" stroke="#F7F5F0" stroke-width="2" fill="none" stroke-linecap="round"/>
</svg>
